<svg width="31" height="30" viewBox="0 0 31 30" fill="none" xmlns="http://www.w3.org/2000/svg">
<path d="M0 0.855347C-1.89168e-08 0.354366 0.528009 0.0412524 0.950417 0.291743L4.69523 2.51244C5.11764 2.76293 5.11764 3.38916 4.69523 3.63965L0.950418 5.86035C0.52801 6.11084 1.86622e-07 5.79772 1.67705e-07 5.29674L0 0.855347Z" fill="white"/>
<path d="M13.5629 24.984C13.9853 25.2345 14.5133 24.9214 14.5133 24.4204V19.979C14.5133 19.478 13.9853 19.1649 13.5629 19.4154L9.81807 21.6361C9.39566 21.8866 9.39566 22.5128 9.81807 22.7633L13.5629 24.984Z" fill="white"/>
<path d="M21.8212 29.9118C22.2436 30.1623 22.7717 29.8492 22.7717 29.3482L22.7717 24.9068C22.7717 24.4059 22.2436 24.0927 21.8212 24.3432L18.0764 26.5639C17.654 26.8144 17.654 27.4406 18.0764 27.6911L21.8212 29.9118Z" fill="white"/>
<path d="M7.80994 5.96339C7.80994 5.46241 8.33794 5.1493 8.76035 5.39979L12.5052 7.62049C12.9276 7.87098 12.9276 8.4972 12.5052 8.74769L8.76035 10.9684C8.33795 11.2189 7.80994 10.9058 7.80994 10.4048V5.96339Z" fill="white"/>
<path d="M13.161 15.483C13.5834 15.7335 14.1114 15.4204 14.1114 14.9194L14.1114 10.478C14.1114 9.97701 13.5834 9.6639 13.161 9.91439L9.41616 12.1351C8.99375 12.3856 8.99375 13.0118 9.41616 13.2623L13.161 15.483Z" fill="white"/>
<path d="M0.352546 10.3857C0.352546 9.88468 0.880556 9.57157 1.30296 9.82206L5.04778 12.0428C5.47018 12.2933 5.47018 12.9195 5.04778 13.17L1.30296 15.3907C0.880557 15.6412 0.352547 15.328 0.352547 14.8271L0.352546 10.3857Z" fill="white"/>
<path d="M5.70358 19.9053C6.12599 20.1558 6.654 19.8426 6.654 19.3417L6.654 14.9003C6.654 14.3993 6.12599 14.0862 5.70358 14.3367L1.95877 16.5574C1.53636 16.8078 1.53636 17.4341 1.95877 17.6846L5.70358 19.9053Z" fill="white"/>
<path d="M5.35103 10.375C5.77344 10.6255 6.30145 10.3123 6.30145 9.81136V5.36997C6.30145 4.86898 5.77344 4.55587 5.35103 4.80636L1.60622 7.02706C1.18381 7.27755 1.18381 7.90378 1.60622 8.15427L5.35103 10.375Z" fill="white"/>
<path d="M8.21183 15.4644C8.21183 14.9635 8.73984 14.6503 9.16225 14.9008L12.9071 17.1215C13.3295 17.372 13.3295 17.9982 12.9071 18.2487L9.16225 20.4694C8.73984 20.7199 8.21183 20.4068 8.21183 19.9058V15.4644Z" fill="white"/>
<path d="M8.2365 24.5564C8.2365 24.0554 8.76451 23.7423 9.18692 23.9928L12.9317 26.2135C13.3541 26.464 13.3541 27.0902 12.9317 27.3407L9.18692 29.5614C8.76451 29.8119 8.2365 29.4988 8.2365 28.9978V24.5564Z" fill="white"/>
<path d="M30.0496 0.0881607C30.472 -0.16233 31 0.150783 31 0.651764V14.8895C31 15.3905 30.472 15.7036 30.0496 15.4531L18.0449 8.33422C17.6225 8.08373 17.6225 7.4575 18.0449 7.20701L30.0496 0.0881607Z" fill="white"/>
<path d="M17.5137 25.0147C17.0913 25.2652 16.5633 24.9521 16.5633 24.4511V10.2134C16.5633 9.71243 17.0913 9.39931 17.5137 9.6498L29.5184 16.7687C29.9408 17.0191 29.9408 17.6454 29.5184 17.8959L17.5137 25.0147Z" fill="white"/>
</svg>
