<svg width="20" height="20" viewBox="0 0 20 20" fill="none" xmlns="http://www.w3.org/2000/svg">
<g clip-path="url(#clip0_813_1343)">
<path d="M0.623682 10.2804C0.459555 10.1163 0.524377 9.84631 0.740363 9.79445L2.65516 9.33471C2.87115 9.28285 3.07631 9.48801 3.02445 9.704L2.56471 11.6188C2.51285 11.8348 2.24286 11.8996 2.07874 11.7355L0.623682 10.2804Z" fill="white"/>
<path d="M12.8284 13.8848C13.0444 13.833 13.1093 13.563 12.9451 13.3989L11.4901 11.9438C11.3259 11.7797 11.056 11.8445 11.0041 12.0605L10.5444 13.9753C10.4925 14.1913 10.6977 14.3964 10.9136 14.3446L12.8284 13.8848Z" fill="white"/>
<path d="M17.0609 12.8814C17.2768 12.8296 17.3417 12.5596 17.1776 12.3954L15.7225 10.9404C15.5584 10.7763 15.2884 10.8411 15.2365 11.0571L14.7768 12.9719C14.7249 13.1879 14.9301 13.393 15.1461 13.3412L17.0609 12.8814Z" fill="white"/>
<path d="M4.7731 9.47769C4.60897 9.31356 4.67379 9.04358 4.88977 8.99172L6.80459 8.53197C7.02057 8.48011 7.22573 8.68527 7.17387 8.90125L6.71412 10.8161C6.66227 11.0321 6.39229 11.0969 6.22816 10.9327L4.7731 9.47769Z" fill="white"/>
<path d="M9.58822 10.9C9.8042 10.8481 9.86903 10.5782 9.70489 10.414L8.24983 8.95896C8.0857 8.79483 7.81573 8.85965 7.76387 9.07563L7.30412 10.9904C7.25227 11.2064 7.45742 11.4116 7.67341 11.3597L9.58822 10.9Z" fill="white"/>
<path d="M3.85758 13.2907C3.69344 13.1265 3.75826 12.8566 3.97425 12.8047L5.88906 12.345C6.10505 12.2931 6.3102 12.4983 6.25835 12.7143L5.7986 14.6291C5.74675 14.845 5.47674 14.9098 5.31264 14.7457L3.85758 13.2907Z" fill="white"/>
<path d="M8.67268 14.713C8.88867 14.6611 8.95346 14.3911 8.78936 14.227L7.3343 12.772C7.17017 12.6078 6.90019 12.6726 6.84834 12.8886L6.38859 14.8034C6.3367 15.0194 6.54189 15.2246 6.75788 15.1727L8.67268 14.713Z" fill="white"/>
<path d="M5.4388 11.7022C5.65479 11.6504 5.71959 11.3804 5.55547 11.2163L4.10042 9.76121C3.93629 9.59708 3.66631 9.6619 3.61445 9.87789L3.1547 11.7927C3.10285 12.0087 3.30801 12.2138 3.52399 12.162L5.4388 11.7022Z" fill="white"/>
<path d="M8.01333 12.463C7.84923 12.2989 7.91402 12.0289 8.13001 11.9771L10.0448 11.5173C10.2608 11.4655 10.466 11.6706 10.4141 11.8866L9.95435 13.8014C9.9025 14.0174 9.63252 14.0822 9.46838 13.9181L8.01333 12.463Z" fill="white"/>
<path d="M10.9997 15.4337C10.8355 15.2696 10.9004 14.9996 11.1163 14.9478L13.0311 14.488C13.2471 14.4362 13.4523 14.6413 13.4004 14.8573L12.9407 16.7721C12.8888 16.9881 12.6189 17.0529 12.4547 16.8888L10.9997 15.4337Z" fill="white"/>
<path d="M9.89921 0.501818C9.95106 0.285834 10.221 0.221015 10.3852 0.385142L15.0496 5.0496C15.2138 5.21373 15.1489 5.48371 14.933 5.53556L8.7947 7.00935C8.57872 7.0612 8.37356 6.85604 8.42541 6.64006L9.89921 0.501818Z" fill="white"/>
<path d="M14.091 12.6426C14.0391 12.8586 13.7692 12.9235 13.605 12.7593L8.94058 8.09487C8.77645 7.93075 8.84127 7.66077 9.05725 7.60891L15.1955 6.13513C15.4115 6.08324 15.6166 6.28843 15.5648 6.50441L14.091 12.6426Z" fill="white"/>
</g>
<defs>
<clipPath id="clip0_813_1343">
<rect width="13.8994" height="13.8994" fill="white" transform="translate(0.343262 10) rotate(-45)"/>
</clipPath>
</defs>
</svg>
